<?xml version="1.0" encoding="UTF-8" standalone="no"?>
<!-- Created with Inkscape (http://www.inkscape.org/) -->

<svg
   xmlns:dc="http://purl.org/dc/elements/1.1/"
   xmlns:cc="http://creativecommons.org/ns#"
   xmlns:rdf="http://www.w3.org/1999/02/22-rdf-syntax-ns#"
   xmlns:svg="http://www.w3.org/2000/svg"
   xmlns="http://www.w3.org/2000/svg"
   xmlns:sodipodi="http://sodipodi.sourceforge.net/DTD/sodipodi-0.dtd"
   xmlns:inkscape="http://www.inkscape.org/namespaces/inkscape"
   width="21.027456mm"
   height="26.227161mm"
   viewBox="0 0 21.027456 26.227161"
   id="svg2"
   version="1.1"
   inkscape:version="0.91+devel+osxmenu r12922"
   sodipodi:docname="gopher.svg">
  <defs
     id="defs4" />
  <sodipodi:namedview
     id="base"
     pagecolor="#ffffff"
     bordercolor="#666666"
     borderopacity="1.0"
     inkscape:pageopacity="0.0"
     inkscape:pageshadow="2"
     inkscape:zoom="4.3479893"
     inkscape:cx="23.177547"
     inkscape:cy="49.56314"
     inkscape:document-units="mm"
     inkscape:current-layer="layer1"
     showgrid="false"
     fit-margin-top="0"
     fit-margin-left="0"
     fit-margin-right="0"
     fit-margin-bottom="0"
     inkscape:window-width="1024"
     inkscape:window-height="576"
     inkscape:window-x="60"
     inkscape:window-y="86"
     inkscape:window-maximized="0"
     inkscape:snap-midpoints="true" />
  <metadata
     id="metadata7">
    <rdf:RDF>
      <cc:Work
         rdf:about="">
        <dc:format>image/svg+xml</dc:format>
        <dc:type
           rdf:resource="http://purl.org/dc/dcmitype/StillImage" />
        <dc:title />
      </cc:Work>
    </rdf:RDF>
  </metadata>
  <g
     inkscape:label="Layer 1"
     inkscape:groupmode="layer"
     id="layer1"
     transform="translate(1.3922132e-7,-270.77284)">
    <g
       id="g4214">
      <path
         style="fill:#ffb882;fill-opacity:1;fill-rule:evenodd;stroke:#000000;stroke-width:0.26458332;stroke-linecap:butt;stroke-linejoin:miter;stroke-miterlimit:4;stroke-dasharray:none;stroke-opacity:1"
         d="m 16.2052,293.48518 c 0,1.72039 0.387402,3.01068 1.162205,3.01068 0.774802,0 1.162204,-1.72039 1.162204,-3.01068"
         id="path4212"
         inkscape:connector-curvature="0"
         sodipodi:nodetypes="csc" />
      <path
         sodipodi:nodetypes="csc"
         inkscape:connector-curvature="0"
         id="path4208"
         d="m 2.3730077,293.48518 c 0,1.72039 0.3874017,3.01068 1.1622045,3.01068 0.7748028,0 1.1622045,-1.72039 1.1622045,-3.01068"
         style="fill:#ffb882;fill-opacity:1;fill-rule:evenodd;stroke:#000000;stroke-width:0.26458332;stroke-linecap:butt;stroke-linejoin:miter;stroke-miterlimit:4;stroke-dasharray:none;stroke-opacity:1" />
      <path
         inkscape:connector-curvature="0"
         style="fill:#73ffff;fill-opacity:1;fill-rule:evenodd;stroke:#000000;stroke-width:0.26458332;stroke-linecap:butt;stroke-linejoin:miter;stroke-miterlimit:4;stroke-dasharray:none;stroke-opacity:1"
         d="m 10.359005,270.91217 c -1.8641197,0.0205 -3.5125218,0.56182 -4.8682488,1.38292 a 1.7117705,1.7117705 0 0 0 -1.43655,-0.78166 1.7117705,1.7117705 0 0 0 -1.7117705,1.71177 1.7117705,1.7117705 0 0 0 0.609417,1.3095 c -0.6643354,0.84613 -1.1251639,1.74892 -1.3446758,2.60149 -0.63417947,1.93735 -1.19201124,7.38897 -1.42825885,10.75808 -0.57533976,5.55816 4.21770045,8.98166 10.36035795,8.97342 6.18209,0.008 10.974966,-3.41531 10.283327,-8.85039 -0.400835,-3.58823 -0.677782,-8.94384 -1.373161,-10.97057 -0.193585,-0.79447 -0.61498,-1.64292 -1.228864,-2.44783 a 1.7117705,1.7117705 0 0 0 0.693535,-1.3737 1.7117705,1.7117705 0 0 0 -1.711771,-1.71177 1.7117705,1.7117705 0 0 0 -1.46918,0.83743 c -1.416703,-0.8827 -3.166661,-1.46154 -5.149354,-1.43856 -0.07528,-8.6e-4 -0.15021,-9.5e-4 -0.224803,-1.3e-4 z"
         id="path4258" />
      <path
         inkscape:connector-curvature="0"
         style="fill:#ffffff;fill-opacity:1;stroke:#000000;stroke-width:0.26458332;stroke-miterlimit:4;stroke-dasharray:none;stroke-opacity:1"
         d="m 4.0516652,272.04956 c -0.042391,7e-5 -0.085098,0.003 -0.128115,0.008 -0.9507899,0.0673 -1.4148037,1.47982 -0.6324191,2.06322 0.4908837,-0.55273 1.0708138,-1.07197 1.7307602,-1.52468 -0.2141117,-0.32332 -0.5749242,-0.54749 -0.9702261,-0.5467 z"
         id="path4260" />
      <path
         inkscape:connector-curvature="0"
         style="fill:#ffffff;fill-opacity:1;stroke:#000000;stroke-width:0.26458332;stroke-miterlimit:4;stroke-dasharray:none;stroke-opacity:1"
         d="m 17.199801,272.04943 c -0.04237,1.3e-4 -0.08514,0.003 -0.128115,0.008 -0.391817,0.0276 -0.699781,0.28254 -0.873003,0.6137 0.636587,0.4511 1.194512,0.96326 1.664162,1.50448 0.307336,-0.192 0.52457,-0.50961 0.508984,-0.90657 0.01461,-0.6407 -0.536457,-1.22172 -1.172028,-1.2199 z"
         id="path4262" />
      <path
         inkscape:connector-curvature="0"
         id="rect4264"
         d="m 9.8726338,281.10798 1.3726062,0 c 0.380212,0 0.686303,0.25054 0.686303,0.56175 l 0,1.68524 c 0,0.31121 -0.306091,0.56175 -0.686303,0.56175 l -1.3726062,0 c -0.3802119,0 -0.6863031,-0.25054 -0.6863031,-0.56175 l 0,-1.68524 c 0,-0.31121 0.3060912,-0.56175 0.6863031,-0.56175 z"
         style="fill:#ffffff;fill-opacity:1;stroke:#000000;stroke-width:0.26458332;stroke-miterlimit:4;stroke-dasharray:none;stroke-opacity:1" />
      <path
         inkscape:connector-curvature="0"
         id="circle4266"
         d="m 8.5165796,278.08643 a 2.3964787,2.3964787 0 0 1 -2.3964787,2.39648 2.3964787,2.3964787 0 0 1 -2.3964786,-2.39648 2.3964787,2.3964787 0 0 1 2.3964786,-2.39648 2.3964787,2.3964787 0 0 1 2.3964787,2.39648 z"
         style="fill:#ffffff;fill-opacity:1;stroke:#000000;stroke-width:0.26458332;stroke-miterlimit:4;stroke-dasharray:none;stroke-opacity:1" />
      <path
         inkscape:connector-curvature="0"
         id="circle4268"
         d="m 17.393789,278.08643 a 2.3964787,2.3964787 0 0 1 -2.396478,2.39648 2.3964787,2.3964787 0 0 1 -2.396479,-2.39648 2.3964787,2.3964787 0 0 1 2.396479,-2.39648 2.3964787,2.3964787 0 0 1 2.396478,2.39648 z"
         style="fill:#ffffff;fill-opacity:1;stroke:#000000;stroke-width:0.26458332;stroke-miterlimit:4;stroke-dasharray:none;stroke-opacity:1" />
      <path
         style="fill:#ffb882;fill-opacity:1;fill-rule:evenodd;stroke:#000000;stroke-width:0.26458332;stroke-linecap:butt;stroke-linejoin:miter;stroke-miterlimit:4;stroke-dasharray:none;stroke-opacity:1"
         d="m 10.558912,280.03653 c 2.399627,0 3.085235,0.53172 3.100281,1.33935 0.01981,1.06333 -1.043455,1.30941 -1.708638,1.31419 -0.706035,0.005 -0.654203,-0.55771 -1.339811,-0.55771 -0.6856076,0 -0.73744,0.56278 -1.3979321,0.57436 -0.7291862,0.0128 -1.7391349,-0.27744 -1.7206745,-1.32841 0.01423,-0.81011 0.6671475,-1.34178 3.0667746,-1.34178 z"
         id="path4271"
         inkscape:connector-curvature="0"
         sodipodi:nodetypes="sssssss" />
      <path
         inkscape:connector-curvature="0"
         id="ellipse4273"
         d="m 11.89437,280.01468 a 1.3354335,0.89543581 0 0 1 -1.335434,0.89544 1.3354335,0.89543581 0 0 1 -1.3354334,-0.89544 1.3354335,0.89543581 0 0 1 1.3354334,-0.89543 1.3354335,0.89543581 0 0 1 1.335434,0.89543 z"
         style="fill:#000000;fill-opacity:1;stroke:#000000;stroke-width:0.26458332;stroke-miterlimit:4;stroke-dasharray:none;stroke-opacity:1" />
      <path
         inkscape:connector-curvature="0"
         id="circle4275"
         d="m 7.5049579,278.07352 a 0.77658916,0.77658916 0 0 1 -0.7765892,0.77659 0.77658916,0.77658916 0 0 1 -0.7765891,-0.77659 0.77658916,0.77658916 0 0 1 0.7765891,-0.77659 0.77658916,0.77658916 0 0 1 0.7765892,0.77659 z"
         style="fill:#000000;fill-opacity:1;stroke:#000000;stroke-width:0.26458332;stroke-miterlimit:4;stroke-dasharray:none;stroke-opacity:1" />
      <path
         inkscape:connector-curvature="0"
         id="circle4277"
         d="m 15.217859,278.07352 a 0.77658916,0.77658916 0 0 1 -0.776589,0.77659 0.77658916,0.77658916 0 0 1 -0.776589,-0.77659 0.77658916,0.77658916 0 0 1 0.776589,-0.77659 0.77658916,0.77658916 0 0 1 0.776589,0.77659 z"
         style="fill:#000000;fill-opacity:1;stroke:#000000;stroke-width:0.26458332;stroke-miterlimit:4;stroke-dasharray:none;stroke-opacity:1" />
      <path
         style="fill:#ffb882;fill-opacity:1;fill-rule:evenodd;stroke:#000000;stroke-width:0.26458332;stroke-linecap:butt;stroke-linejoin:miter;stroke-miterlimit:4;stroke-dasharray:none;stroke-opacity:1"
         d="m 2.4242382,286.36416 c 0,1.72039 0.3874017,3.01069 1.1622045,3.01069 0.7748028,0 1.1622046,-1.7204 1.1622046,-3.01069"
         id="path4279"
         inkscape:connector-curvature="0"
         sodipodi:nodetypes="csc" />
      <path
         sodipodi:nodetypes="csc"
         inkscape:connector-curvature="0"
         id="path4204"
         d="m 16.15397,286.36416 c 0,1.72039 0.387402,3.01069 1.162205,3.01069 0.774802,0 1.162204,-1.7204 1.162204,-3.01069"
         style="fill:#ffb882;fill-opacity:1;fill-rule:evenodd;stroke:#000000;stroke-width:0.26458332;stroke-linecap:butt;stroke-linejoin:miter;stroke-miterlimit:4;stroke-dasharray:none;stroke-opacity:1" />
    </g>
  </g>
</svg>
